<?xml version="1.0" encoding="UTF-8"?>
<svg xmlns="http://www.w3.org/2000/svg" width="391" height="69">
   <defs>
      <style type="text/css">
    @namespace "http://www.w3.org/2000/svg";
    .line                 {fill: none; stroke: #332900; stroke-width: 1;}
    .bold-line            {stroke: #141000; shape-rendering: crispEdges; stroke-width: 2;}
    .thin-line            {stroke: #1F1800; shape-rendering: crispEdges}
    .filled               {fill: #332900; stroke: none;}
    text.terminal         {font-family: Verdana, Sans-serif;
                            font-size: 12px;
                            fill: #141000;
                            font-weight: bold;
                          }
    text.nonterminal      {font-family: Verdana, Sans-serif;
                            font-size: 12px;
                            fill: #1A1400;
                            font-weight: normal;
                          }
    text.regexp           {font-family: Verdana, Sans-serif;
                            font-size: 12px;
                            fill: #1F1800;
                            font-weight: normal;
                          }
    rect, circle, polygon {fill: #332900; stroke: #332900;}
    rect.terminal         {fill: #FFDB4D; stroke: #332900; stroke-width: 1;}
    rect.nonterminal      {fill: #FFEC9E; stroke: #332900; stroke-width: 1;}
    rect.text             {fill: none; stroke: none;}
    polygon.regexp        {fill: #FFF4C7; stroke: #332900; stroke-width: 1;}
  </style>
   </defs>
   <polygon points="9 33 1 29 1 37"/>
   <polygon points="17 33 9 29 9 37"/>
   <a xmlns:xlink="http://www.w3.org/1999/xlink"
      xlink:href="#IDENTIFIER"
      xlink:title="IDENTIFIER">
      <rect x="71" y="19" width="92" height="32"/>
      <rect x="69" y="17" width="92" height="32" class="nonterminal"/>
      <text class="nonterminal" x="79" y="37">IDENTIFIER</text>
   </a>
   <rect x="183" y="19" width="30" height="32" rx="10"/>
   <rect x="181"
         y="17"
         width="30"
         height="32"
         class="terminal"
         rx="10"/>
   <text class="terminal" x="191" y="37">=</text>
   <a xmlns:xlink="http://www.w3.org/1999/xlink"
      xlink:href="#Expression"
      xlink:title="Expression">
      <rect x="273" y="19" width="90" height="32"/>
      <rect x="271" y="17" width="90" height="32" class="nonterminal"/>
      <text class="nonterminal" x="281" y="37">Expression</text>
   </a>
   <path class="line"
         d="m17 33 h2 m40 0 h10 m92 0 h10 m0 0 h10 m30 0 h10 m-182 0 l20 0 m-1 0 q-9 0 -9 -10 l0 -12 q0 -10 10 -10 m162 32 l20 0 m-20 0 q10 0 10 -10 l0 -12 q0 -10 -10 -10 m-162 0 h10 m0 0 h152 m-202 32 h20 m202 0 h20 m-242 0 q10 0 10 10 m222 0 q0 -10 10 -10 m-232 10 v14 m222 0 v-14 m-222 14 q0 10 10 10 m202 0 q10 0 10 -10 m-212 10 h10 m0 0 h192 m20 -34 h10 m90 0 h10 m3 0 h-3"/>
   <polygon points="381 33 389 29 389 37"/>
   <polygon points="381 33 373 29 373 37"/>
</svg>
