<?xml version="1.0" encoding="UTF-8"?>
<svg xmlns="http://www.w3.org/2000/svg" width="697" height="179">
   <defs>
      <style type="text/css">
    @namespace "http://www.w3.org/2000/svg";
    .line                 {fill: none; stroke: #332900; stroke-width: 1;}
    .bold-line            {stroke: #141000; shape-rendering: crispEdges; stroke-width: 2;}
    .thin-line            {stroke: #1F1800; shape-rendering: crispEdges}
    .filled               {fill: #332900; stroke: none;}
    text.terminal         {font-family: Verdana, Sans-serif;
                            font-size: 12px;
                            fill: #141000;
                            font-weight: bold;
                          }
    text.nonterminal      {font-family: Verdana, Sans-serif;
                            font-size: 12px;
                            fill: #1A1400;
                            font-weight: normal;
                          }
    text.regexp           {font-family: Verdana, Sans-serif;
                            font-size: 12px;
                            fill: #1F1800;
                            font-weight: normal;
                          }
    rect, circle, polygon {fill: #332900; stroke: #332900;}
    rect.terminal         {fill: #FFDB4D; stroke: #332900; stroke-width: 1;}
    rect.nonterminal      {fill: #FFEC9E; stroke: #332900; stroke-width: 1;}
    rect.text             {fill: none; stroke: none;}
    polygon.regexp        {fill: #FFF4C7; stroke: #332900; stroke-width: 1;}
  </style>
   </defs>
   <polygon points="9 33 1 29 1 37"/>
   <polygon points="17 33 9 29 9 37"/>
   <a xmlns:xlink="http://www.w3.org/1999/xlink"
      xlink:href="#KUNDIMAN"
      xlink:title="KUNDIMAN">
      <rect x="71" y="19" width="88" height="32"/>
      <rect x="69" y="17" width="88" height="32" class="nonterminal"/>
      <text class="nonterminal" x="79" y="37">KUNDIMAN</text>
   </a>
   <rect x="179" y="19" width="26" height="32" rx="10"/>
   <rect x="177"
         y="17"
         width="26"
         height="32"
         class="terminal"
         rx="10"/>
   <text class="terminal" x="187" y="37">(</text>
   <a xmlns:xlink="http://www.w3.org/1999/xlink"
      xlink:href="#BooleanExpression"
      xlink:title="BooleanExpression">
      <rect x="225" y="19" width="140" height="32"/>
      <rect x="223" y="17" width="140" height="32" class="nonterminal"/>
      <text class="nonterminal" x="233" y="37">BooleanExpression</text>
   </a>
   <rect x="385" y="19" width="26" height="32" rx="10"/>
   <rect x="383"
         y="17"
         width="26"
         height="32"
         class="terminal"
         rx="10"/>
   <text class="terminal" x="393" y="37">)</text>
   <rect x="431" y="19" width="28" height="32" rx="10"/>
   <rect x="429"
         y="17"
         width="28"
         height="32"
         class="terminal"
         rx="10"/>
   <text class="terminal" x="439" y="37">{</text>
   <a xmlns:xlink="http://www.w3.org/1999/xlink"
      xlink:href="#StatementList"
      xlink:title="StatementList">
      <rect x="479" y="19" width="108" height="32"/>
      <rect x="477" y="17" width="108" height="32" class="nonterminal"/>
      <text class="nonterminal" x="487" y="37">StatementList</text>
   </a>
   <rect x="607" y="19" width="28" height="32" rx="10"/>
   <rect x="605"
         y="17"
         width="28"
         height="32"
         class="terminal"
         rx="10"/>
   <text class="terminal" x="615" y="37">}</text>
   <a xmlns:xlink="http://www.w3.org/1999/xlink"
      xlink:href="#KUNDI"
      xlink:title="KUNDI">
      <rect x="365" y="101" width="60" height="32"/>
      <rect x="363" y="99" width="60" height="32" class="nonterminal"/>
      <text class="nonterminal" x="373" y="119">KUNDI</text>
   </a>
   <rect x="445" y="101" width="28" height="32" rx="10"/>
   <rect x="443"
         y="99"
         width="28"
         height="32"
         class="terminal"
         rx="10"/>
   <text class="terminal" x="453" y="119">{</text>
   <a xmlns:xlink="http://www.w3.org/1999/xlink"
      xlink:href="#StatementList"
      xlink:title="StatementList">
      <rect x="493" y="101" width="108" height="32"/>
      <rect x="491" y="99" width="108" height="32" class="nonterminal"/>
      <text class="nonterminal" x="501" y="119">StatementList</text>
   </a>
   <rect x="621" y="101" width="28" height="32" rx="10"/>
   <rect x="619"
         y="99"
         width="28"
         height="32"
         class="terminal"
         rx="10"/>
   <text class="terminal" x="629" y="119">}</text>
   <a xmlns:xlink="http://www.w3.org/1999/xlink"
      xlink:href="#ε"
      xlink:title="ε">
      <rect x="365" y="145" width="26" height="32"/>
      <rect x="363" y="143" width="26" height="32" class="nonterminal"/>
      <text class="nonterminal" x="373" y="163">ε</text>
   </a>
   <path class="line"
         d="m17 33 h2 m40 0 h10 m88 0 h10 m0 0 h10 m26 0 h10 m0 0 h10 m140 0 h10 m0 0 h10 m26 0 h10 m0 0 h10 m28 0 h10 m0 0 h10 m108 0 h10 m0 0 h10 m28 0 h10 m-604 0 l20 0 m-1 0 q-9 0 -9 -10 l0 -12 q0 -10 10 -10 m584 32 l20 0 m-20 0 q10 0 10 -10 l0 -12 q0 -10 -10 -10 m-584 0 h10 m0 0 h574 m-624 32 h20 m624 0 h20 m-664 0 q10 0 10 10 m644 0 q0 -10 10 -10 m-654 10 v14 m644 0 v-14 m-644 14 q0 10 10 10 m624 0 q10 0 10 -10 m-634 10 h10 m0 0 h614 m22 -34 l2 0 m2 0 l2 0 m2 0 l2 0 m-374 82 l2 0 m2 0 l2 0 m2 0 l2 0 m22 0 h10 m60 0 h10 m0 0 h10 m28 0 h10 m0 0 h10 m108 0 h10 m0 0 h10 m28 0 h10 m-324 0 h20 m304 0 h20 m-344 0 q10 0 10 10 m324 0 q0 -10 10 -10 m-334 10 v24 m324 0 v-24 m-324 24 q0 10 10 10 m304 0 q10 0 10 -10 m-314 10 h10 m26 0 h10 m0 0 h258 m23 -44 h-3"/>
   <polygon points="687 115 695 111 695 119"/>
   <polygon points="687 115 679 111 679 119"/>
</svg>
