<?xml version="1.0" encoding="UTF-8"?>
<svg xmlns="http://www.w3.org/2000/svg" width="815" height="37">
   <defs>
      <style type="text/css">
    @namespace "http://www.w3.org/2000/svg";
    .line                 {fill: none; stroke: #332900; stroke-width: 1;}
    .bold-line            {stroke: #141000; shape-rendering: crispEdges; stroke-width: 2;}
    .thin-line            {stroke: #1F1800; shape-rendering: crispEdges}
    .filled               {fill: #332900; stroke: none;}
    text.terminal         {font-family: Verdana, Sans-serif;
                            font-size: 12px;
                            fill: #141000;
                            font-weight: bold;
                          }
    text.nonterminal      {font-family: Verdana, Sans-serif;
                            font-size: 12px;
                            fill: #1A1400;
                            font-weight: normal;
                          }
    text.regexp           {font-family: Verdana, Sans-serif;
                            font-size: 12px;
                            fill: #1F1800;
                            font-weight: normal;
                          }
    rect, circle, polygon {fill: #332900; stroke: #332900;}
    rect.terminal         {fill: #FFDB4D; stroke: #332900; stroke-width: 1;}
    rect.nonterminal      {fill: #FFEC9E; stroke: #332900; stroke-width: 1;}
    rect.text             {fill: none; stroke: none;}
    polygon.regexp        {fill: #FFF4C7; stroke: #332900; stroke-width: 1;}
  </style>
   </defs>
   <polygon points="9 17 1 13 1 21"/>
   <polygon points="17 17 9 13 9 21"/>
   <a xmlns:xlink="http://www.w3.org/1999/xlink"
      xlink:href="#PARA"
      xlink:title="PARA">
      <rect x="31" y="3" width="52" height="32"/>
      <rect x="29" y="1" width="52" height="32" class="nonterminal"/>
      <text class="nonterminal" x="39" y="21">PARA</text>
   </a>
   <rect x="103" y="3" width="26" height="32" rx="10"/>
   <rect x="101"
         y="1"
         width="26"
         height="32"
         class="terminal"
         rx="10"/>
   <text class="terminal" x="111" y="21">(</text>
   <a xmlns:xlink="http://www.w3.org/1999/xlink"
      xlink:href="#Assignment"
      xlink:title="Assignment">
      <rect x="149" y="3" width="94" height="32"/>
      <rect x="147" y="1" width="94" height="32" class="nonterminal"/>
      <text class="nonterminal" x="157" y="21">Assignment</text>
   </a>
   <a xmlns:xlink="http://www.w3.org/1999/xlink"
      xlink:href="#BooleanExpression"
      xlink:title="BooleanExpression">
      <rect x="263" y="3" width="140" height="32"/>
      <rect x="261" y="1" width="140" height="32" class="nonterminal"/>
      <text class="nonterminal" x="271" y="21">BooleanExpression</text>
   </a>
   <a xmlns:xlink="http://www.w3.org/1999/xlink"
      xlink:href="#Assignment"
      xlink:title="Assignment">
      <rect x="423" y="3" width="94" height="32"/>
      <rect x="421" y="1" width="94" height="32" class="nonterminal"/>
      <text class="nonterminal" x="431" y="21">Assignment</text>
   </a>
   <rect x="537" y="3" width="26" height="32" rx="10"/>
   <rect x="535"
         y="1"
         width="26"
         height="32"
         class="terminal"
         rx="10"/>
   <text class="terminal" x="545" y="21">)</text>
   <rect x="583" y="3" width="28" height="32" rx="10"/>
   <rect x="581"
         y="1"
         width="28"
         height="32"
         class="terminal"
         rx="10"/>
   <text class="terminal" x="591" y="21">{</text>
   <a xmlns:xlink="http://www.w3.org/1999/xlink"
      xlink:href="#StatementList"
      xlink:title="StatementList">
      <rect x="631" y="3" width="108" height="32"/>
      <rect x="629" y="1" width="108" height="32" class="nonterminal"/>
      <text class="nonterminal" x="639" y="21">StatementList</text>
   </a>
   <rect x="759" y="3" width="28" height="32" rx="10"/>
   <rect x="757"
         y="1"
         width="28"
         height="32"
         class="terminal"
         rx="10"/>
   <text class="terminal" x="767" y="21">}</text>
   <path class="line"
         d="m17 17 h2 m0 0 h10 m52 0 h10 m0 0 h10 m26 0 h10 m0 0 h10 m94 0 h10 m0 0 h10 m140 0 h10 m0 0 h10 m94 0 h10 m0 0 h10 m26 0 h10 m0 0 h10 m28 0 h10 m0 0 h10 m108 0 h10 m0 0 h10 m28 0 h10 m3 0 h-3"/>
   <polygon points="805 17 813 13 813 21"/>
   <polygon points="805 17 797 13 797 21"/>
</svg>
