<?xml version="1.0" encoding="UTF-8"?>
<svg xmlns="http://www.w3.org/2000/svg" width="673" height="37">
   <defs>
      <style type="text/css">
    @namespace "http://www.w3.org/2000/svg";
    .line                 {fill: none; stroke: #332900; stroke-width: 1;}
    .bold-line            {stroke: #141000; shape-rendering: crispEdges; stroke-width: 2;}
    .thin-line            {stroke: #1F1800; shape-rendering: crispEdges}
    .filled               {fill: #332900; stroke: none;}
    text.terminal         {font-family: Verdana, Sans-serif;
                            font-size: 12px;
                            fill: #141000;
                            font-weight: bold;
                          }
    text.nonterminal      {font-family: Verdana, Sans-serif;
                            font-size: 12px;
                            fill: #1A1400;
                            font-weight: normal;
                          }
    text.regexp           {font-family: Verdana, Sans-serif;
                            font-size: 12px;
                            fill: #1F1800;
                            font-weight: normal;
                          }
    rect, circle, polygon {fill: #332900; stroke: #332900;}
    rect.terminal         {fill: #FFDB4D; stroke: #332900; stroke-width: 1;}
    rect.nonterminal      {fill: #FFEC9E; stroke: #332900; stroke-width: 1;}
    rect.text             {fill: none; stroke: none;}
    polygon.regexp        {fill: #FFF4C7; stroke: #332900; stroke-width: 1;}
  </style>
   </defs>
   <polygon points="9 17 1 13 1 21"/>
   <polygon points="17 17 9 13 9 21"/>
   <a xmlns:xlink="http://www.w3.org/1999/xlink"
      xlink:href="#AccessModifier"
      xlink:title="AccessModifier">
      <rect x="31" y="3" width="112" height="32"/>
      <rect x="29" y="1" width="112" height="32" class="nonterminal"/>
      <text class="nonterminal" x="39" y="21">AccessModifier</text>
   </a>
   <a xmlns:xlink="http://www.w3.org/1999/xlink"
      xlink:href="#OptionalStatic"
      xlink:title="OptionalStatic">
      <rect x="163" y="3" width="108" height="32"/>
      <rect x="161" y="1" width="108" height="32" class="nonterminal"/>
      <text class="nonterminal" x="171" y="21">OptionalStatic</text>
   </a>
   <a xmlns:xlink="http://www.w3.org/1999/xlink"
      xlink:href="#DataType"
      xlink:title="DataType">
      <rect x="291" y="3" width="80" height="32"/>
      <rect x="289" y="1" width="80" height="32" class="nonterminal"/>
      <text class="nonterminal" x="299" y="21">DataType</text>
   </a>
   <a xmlns:xlink="http://www.w3.org/1999/xlink"
      xlink:href="#IDENTIFIER"
      xlink:title="IDENTIFIER">
      <rect x="391" y="3" width="92" height="32"/>
      <rect x="389" y="1" width="92" height="32" class="nonterminal"/>
      <text class="nonterminal" x="399" y="21">IDENTIFIER</text>
   </a>
   <a xmlns:xlink="http://www.w3.org/1999/xlink"
      xlink:href="#MemberRest"
      xlink:title="MemberRest">
      <rect x="503" y="3" width="98" height="32"/>
      <rect x="501" y="1" width="98" height="32" class="nonterminal"/>
      <text class="nonterminal" x="511" y="21">MemberRest</text>
   </a>
   <rect x="621" y="3" width="24" height="32" rx="10"/>
   <rect x="619"
         y="1"
         width="24"
         height="32"
         class="terminal"
         rx="10"/>
   <text class="terminal" x="629" y="21">;</text>
   <path class="line"
         d="m17 17 h2 m0 0 h10 m112 0 h10 m0 0 h10 m108 0 h10 m0 0 h10 m80 0 h10 m0 0 h10 m92 0 h10 m0 0 h10 m98 0 h10 m0 0 h10 m24 0 h10 m3 0 h-3"/>
   <polygon points="663 17 671 13 671 21"/>
   <polygon points="663 17 655 13 655 21"/>
</svg>
