<?xml version="1.0" encoding="UTF-8"?>
<svg xmlns="http://www.w3.org/2000/svg" width="369" height="81">
   <defs>
      <style type="text/css">
    @namespace "http://www.w3.org/2000/svg";
    .line                 {fill: none; stroke: #332900; stroke-width: 1;}
    .bold-line            {stroke: #141000; shape-rendering: crispEdges; stroke-width: 2;}
    .thin-line            {stroke: #1F1800; shape-rendering: crispEdges}
    .filled               {fill: #332900; stroke: none;}
    text.terminal         {font-family: Verdana, Sans-serif;
                            font-size: 12px;
                            fill: #141000;
                            font-weight: bold;
                          }
    text.nonterminal      {font-family: Verdana, Sans-serif;
                            font-size: 12px;
                            fill: #1A1400;
                            font-weight: normal;
                          }
    text.regexp           {font-family: Verdana, Sans-serif;
                            font-size: 12px;
                            fill: #1F1800;
                            font-weight: normal;
                          }
    rect, circle, polygon {fill: #332900; stroke: #332900;}
    rect.terminal         {fill: #FFDB4D; stroke: #332900; stroke-width: 1;}
    rect.nonterminal      {fill: #FFEC9E; stroke: #332900; stroke-width: 1;}
    rect.text             {fill: none; stroke: none;}
    polygon.regexp        {fill: #FFF4C7; stroke: #332900; stroke-width: 1;}
  </style>
   </defs>
   <polygon points="9 17 1 13 1 21"/>
   <polygon points="17 17 9 13 9 21"/>
   <a xmlns:xlink="http://www.w3.org/1999/xlink"
      xlink:href="#MainFunction"
      xlink:title="MainFunction">
      <rect x="51" y="3" width="102" height="32"/>
      <rect x="49" y="1" width="102" height="32" class="nonterminal"/>
      <text class="nonterminal" x="59" y="21">MainFunction</text>
   </a>
   <a xmlns:xlink="http://www.w3.org/1999/xlink"
      xlink:href="#ClassDefinition"
      xlink:title="ClassDefinition">
      <rect x="51" y="47" width="114" height="32"/>
      <rect x="49" y="45" width="114" height="32" class="nonterminal"/>
      <text class="nonterminal" x="59" y="65">ClassDefinition</text>
   </a>
   <a xmlns:xlink="http://www.w3.org/1999/xlink"
      xlink:href="#ClassDefinitionTail"
      xlink:title="ClassDefinitionTail">
      <rect x="185" y="47" width="136" height="32"/>
      <rect x="183" y="45" width="136" height="32" class="nonterminal"/>
      <text class="nonterminal" x="193" y="65">ClassDefinitionTail</text>
   </a>
   <path class="line"
         d="m17 17 h2 m20 0 h10 m102 0 h10 m0 0 h168 m-310 0 h20 m290 0 h20 m-330 0 q10 0 10 10 m310 0 q0 -10 10 -10 m-320 10 v24 m310 0 v-24 m-310 24 q0 10 10 10 m290 0 q10 0 10 -10 m-300 10 h10 m114 0 h10 m0 0 h10 m136 0 h10 m23 -44 h-3"/>
   <polygon points="359 17 367 13 367 21"/>
   <polygon points="359 17 351 13 351 21"/>
</svg>
