<?xml version="1.0" encoding="UTF-8"?>
<svg xmlns="http://www.w3.org/2000/svg" width="331" height="113">
   <defs>
      <style type="text/css">
    @namespace "http://www.w3.org/2000/svg";
    .line                 {fill: none; stroke: #332900; stroke-width: 1;}
    .bold-line            {stroke: #141000; shape-rendering: crispEdges; stroke-width: 2;}
    .thin-line            {stroke: #1F1800; shape-rendering: crispEdges}
    .filled               {fill: #332900; stroke: none;}
    text.terminal         {font-family: Verdana, Sans-serif;
                            font-size: 12px;
                            fill: #141000;
                            font-weight: bold;
                          }
    text.nonterminal      {font-family: Verdana, Sans-serif;
                            font-size: 12px;
                            fill: #1A1400;
                            font-weight: normal;
                          }
    text.regexp           {font-family: Verdana, Sans-serif;
                            font-size: 12px;
                            fill: #1F1800;
                            font-weight: normal;
                          }
    rect, circle, polygon {fill: #332900; stroke: #332900;}
    rect.terminal         {fill: #FFDB4D; stroke: #332900; stroke-width: 1;}
    rect.nonterminal      {fill: #FFEC9E; stroke: #332900; stroke-width: 1;}
    rect.text             {fill: none; stroke: none;}
    polygon.regexp        {fill: #FFF4C7; stroke: #332900; stroke-width: 1;}
  </style>
   </defs>
   <polygon points="9 33 1 29 1 37"/>
   <polygon points="17 33 9 29 9 37"/>
   <rect x="91" y="19" width="28" height="32" rx="10"/>
   <rect x="89"
         y="17"
         width="28"
         height="32"
         class="terminal"
         rx="10"/>
   <text class="terminal" x="99" y="37">*</text>
   <rect x="91" y="63" width="28" height="32" rx="10"/>
   <rect x="89"
         y="61"
         width="28"
         height="32"
         class="terminal"
         rx="10"/>
   <text class="terminal" x="99" y="81">/</text>
   <a xmlns:xlink="http://www.w3.org/1999/xlink"
      xlink:href="#Factor"
      xlink:title="Factor">
      <rect x="159" y="19" width="58" height="32"/>
      <rect x="157" y="17" width="58" height="32" class="nonterminal"/>
      <text class="nonterminal" x="167" y="37">Factor</text>
   </a>
   <a xmlns:xlink="http://www.w3.org/1999/xlink"
      xlink:href="#ε"
      xlink:title="ε">
      <rect x="277" y="19" width="26" height="32"/>
      <rect x="275" y="17" width="26" height="32" class="nonterminal"/>
      <text class="nonterminal" x="285" y="37">ε</text>
   </a>
   <path class="line"
         d="m17 33 h2 m60 0 h10 m28 0 h10 m-68 0 h20 m48 0 h20 m-88 0 q10 0 10 10 m68 0 q0 -10 10 -10 m-78 10 v24 m68 0 v-24 m-68 24 q0 10 10 10 m48 0 q10 0 10 -10 m-58 10 h10 m28 0 h10 m20 -44 h10 m58 0 h10 m-186 0 l20 0 m-1 0 q-9 0 -9 -10 l0 -12 q0 -10 10 -10 m166 32 l20 0 m-20 0 q10 0 10 -10 l0 -12 q0 -10 -10 -10 m-166 0 h10 m0 0 h156 m-206 32 h20 m206 0 h20 m-246 0 q10 0 10 10 m226 0 q0 -10 10 -10 m-236 10 v58 m226 0 v-58 m-226 58 q0 10 10 10 m206 0 q10 0 10 -10 m-216 10 h10 m0 0 h196 m20 -78 h10 m26 0 h10 m3 0 h-3"/>
   <polygon points="321 33 329 29 329 37"/>
   <polygon points="321 33 313 29 313 37"/>
</svg>
