<?xml version="1.0" encoding="UTF-8"?>
<svg xmlns="http://www.w3.org/2000/svg" width="607" height="37">
   <defs>
      <style type="text/css">
    @namespace "http://www.w3.org/2000/svg";
    .line                 {fill: none; stroke: #332900; stroke-width: 1;}
    .bold-line            {stroke: #141000; shape-rendering: crispEdges; stroke-width: 2;}
    .thin-line            {stroke: #1F1800; shape-rendering: crispEdges}
    .filled               {fill: #332900; stroke: none;}
    text.terminal         {font-family: Verdana, Sans-serif;
                            font-size: 12px;
                            fill: #141000;
                            font-weight: bold;
                          }
    text.nonterminal      {font-family: Verdana, Sans-serif;
                            font-size: 12px;
                            fill: #1A1400;
                            font-weight: normal;
                          }
    text.regexp           {font-family: Verdana, Sans-serif;
                            font-size: 12px;
                            fill: #1F1800;
                            font-weight: normal;
                          }
    rect, circle, polygon {fill: #332900; stroke: #332900;}
    rect.terminal         {fill: #FFDB4D; stroke: #332900; stroke-width: 1;}
    rect.nonterminal      {fill: #FFEC9E; stroke: #332900; stroke-width: 1;}
    rect.text             {fill: none; stroke: none;}
    polygon.regexp        {fill: #FFF4C7; stroke: #332900; stroke-width: 1;}
  </style>
   </defs>
   <polygon points="9 17 1 13 1 21"/>
   <polygon points="17 17 9 13 9 21"/>
   <a xmlns:xlink="http://www.w3.org/1999/xlink"
      xlink:href="#HABANG"
      xlink:title="HABANG">
      <rect x="31" y="3" width="72" height="32"/>
      <rect x="29" y="1" width="72" height="32" class="nonterminal"/>
      <text class="nonterminal" x="39" y="21">HABANG</text>
   </a>
   <rect x="123" y="3" width="26" height="32" rx="10"/>
   <rect x="121"
         y="1"
         width="26"
         height="32"
         class="terminal"
         rx="10"/>
   <text class="terminal" x="131" y="21">(</text>
   <a xmlns:xlink="http://www.w3.org/1999/xlink"
      xlink:href="#BooleanExpression"
      xlink:title="BooleanExpression">
      <rect x="169" y="3" width="140" height="32"/>
      <rect x="167" y="1" width="140" height="32" class="nonterminal"/>
      <text class="nonterminal" x="177" y="21">BooleanExpression</text>
   </a>
   <rect x="329" y="3" width="26" height="32" rx="10"/>
   <rect x="327"
         y="1"
         width="26"
         height="32"
         class="terminal"
         rx="10"/>
   <text class="terminal" x="337" y="21">)</text>
   <rect x="375" y="3" width="28" height="32" rx="10"/>
   <rect x="373"
         y="1"
         width="28"
         height="32"
         class="terminal"
         rx="10"/>
   <text class="terminal" x="383" y="21">{</text>
   <a xmlns:xlink="http://www.w3.org/1999/xlink"
      xlink:href="#StatementList"
      xlink:title="StatementList">
      <rect x="423" y="3" width="108" height="32"/>
      <rect x="421" y="1" width="108" height="32" class="nonterminal"/>
      <text class="nonterminal" x="431" y="21">StatementList</text>
   </a>
   <rect x="551" y="3" width="28" height="32" rx="10"/>
   <rect x="549"
         y="1"
         width="28"
         height="32"
         class="terminal"
         rx="10"/>
   <text class="terminal" x="559" y="21">}</text>
   <path class="line"
         d="m17 17 h2 m0 0 h10 m72 0 h10 m0 0 h10 m26 0 h10 m0 0 h10 m140 0 h10 m0 0 h10 m26 0 h10 m0 0 h10 m28 0 h10 m0 0 h10 m108 0 h10 m0 0 h10 m28 0 h10 m3 0 h-3"/>
   <polygon points="597 17 605 13 605 21"/>
   <polygon points="597 17 589 13 589 21"/>
</svg>
